#!OML:ASF H:\ManfredETheater\Project 1\Capture day 1\Session 1\subject.ASF
:FULLY-SPECIFIED
:DEGREES
77
root -1.9197 20.42 12.8389 -161.089 0.860391 172.414
lowerback 19.9749 -1.72117 -3.13424
upperback 0.762903 -3.2168 0.29227
thorax -10.1918 -1.46914 3.03264
lowerneck -18.5931 -0.612591 -1.78864
upperneck 2.03595 0.0941235 -1.41883
head 3.5422 0.114279 -0.137607
rclavicle -1.11319e-014 8.34896e-015
rhumerus -59.1287 -0.915399 -82.8854
rradius 87.5062
rwrist -7.63754
rhand -28.7783 1.38301
rfingers 7.12502
rthumb -2.13764 -28.586
lclavicle -1.11319e-014 8.34896e-015
lhumerus -34.8216 -17.9564 103.035
lradius 108.821
lwrist 14.2034
lhand -25.6534 -17.3581
lfingers 7.12502
lthumb 0.88049 12.6198
rfemur -75.6317 -9.14084 17.048
rtibia 88.0065
rfoot -16.4005 -4.06321
rtoes -31.2188
lfemur -26.7279 -0.815869 -31.2797
ltibia 56.8147
lfoot -33.0819 -4.27326
ltoes -8.46018
78
root -1.90052 20.535 12.3623 -161.22 1.15205 172.483
lowerback 19.6155 -1.72577 -3.13563
upperback 0.774695 -3.19021 0.433046
thorax -9.9715 -1.45776 3.16076
lowerneck -18.7122 -0.470223 -1.63139
upperneck 2.03825 0.282772 -1.74429
head 3.56185 0.19341 -0.248131
rclavicle -5.96354e-015 3.57812e-015
rhumerus -59.9058 -1.51701 -82.2974
rradius 88.1351
rwrist -7.31018
rhand -28.6921 1.61842
rfingers 7.12502
rthumb -2.05438 -28.3514
lclavicle -5.96354e-015 3.57812e-015
lhumerus -35.0807 -18.2796 103.36
lradius 109.394
lwrist 13.5871
lhand -25.5469 -17.6127
lfingers 7.12502
lthumb 0.9834 12.3648
rfemur -75.2117 -8.51255 16.9228
rtibia 83.7198
rfoot -16.4592 -3.48667
rtoes -32.4
lfemur -24.0946 -1.63847 -31.0605
ltibia 54.8593
lfoot -30.8777 -4.5051
ltoes -11.3005
79
root -1.87909 20.6465 11.8804 -161.385 1.48031 172.532
lowerback 19.208 -2.00723 -3.28054
upperback 0.813658 -3.07804 0.542328
thorax -9.68293 -1.20019 3.27343
lowerneck -18.8281 -0.326294 -1.47787
upperneck 2.08321 0.467842 -2.0261
head 3.59505 0.27087 -0.344796
rclavicle -3.18055e-015 2.06736e-014
rhumerus -60.544 -2.13099 -81.8202
rradius 88.672
rwrist -7.21978
rhand -28.6373 1.63041
rfingers 7.12502
rthumb -2.0014 -28.3399
lclavicle -3.18055e-015 2.06736e-014
lhumerus -35.4367 -18.5588 103.632
lradius 109.767
lwrist 12.9466
lhand -25.4683 -17.84
lfingers 7.12502
lthumb 1.05924 12.1371
rfemur -74.504 -7.91879 16.7886
rtibia 79.4933
rfoot -16.3991 -2.94816
rtoes -33.6187
lfemur -21.6174 -2.53071 -30.9182
ltibia 53.1413
lfoot -28.3092 -4.92874
ltoes -13.7836
80
root -1.85463 20.7523 11.3952 -161.546 1.82101 172.536
lowerback 18.7324 -1.97973 -3.37617
upperback 0.85092 -3.04429 0.622041
thorax -9.36993 -1.19187 3.38142
lowerneck -18.9379 -0.181822 -1.33277
upperneck 2.18577 0.647032 -2.25184
head 3.64571 0.345323 -0.423166
rclavicle -3.10104e-014 2.70347e-014
rhumerus -61.0409 -2.72871 -81.4722
rradius 89.1281
rwrist -7.36797
rhand -28.6121 1.45309
rfingers 7.12502
rthumb -1.97705 -28.5175
lclavicle -3.10104e-014 2.70347e-014
lhumerus -35.8845 -18.7956 103.84
lradius 109.939
lwrist 12.3679
lhand -25.4272 -18.0239
lfingers 7.12502
lthumb 1.09896 11.9531
rfemur -73.6012 -7.37563 16.6334
rtibia 75.403
rfoot -16.1442 -2.47605
rtoes -34.8308
lfemur -19.3512 -3.47147 -30.8744
ltibia 51.6406
lfoot -25.3131 -5.53523
ltoes -15.7143
81
root -1.8255 20.8172 10.9106 -161.705 2.16409 172.481
lowerback 18.214 -1.9484 -3.54155
upperback 0.879733 -3.02268 0.66457
thorax -9.04035 -1.18847 3.48971
lowerneck -19.0448 -0.0387589 -1.20164
upperneck 2.35624 0.818111 -2.4129
head 3.71719 0.415676 -0.479833
rclavicle 3.85642e-014 7.95139e-015
rhumerus -61.3946 -3.28408 -81.2645
rradius 89.5202
rwrist -7.71403
rhand -28.6286 1.11358
rfingers 7.12502
rthumb -1.99303 -28.8569
lclavicle 3.85642e-014 7.95139e-015
lhumerus -36.4196 -18.9865 103.979
lradius 109.924
lwrist 11.9308
lhand -25.3876 -18.1467
lfingers 7.12502
lthumb 1.13719 11.83
rfemur -72.7496 -6.86387 16.4482
rtibia 71.6979
rfoot -15.6027 -2.08995
rtoes -35.9385
lfemur -17.3828 -4.40034 -30.9404
ltibia 50.5169
lfoot -21.9767 -6.24426
ltoes -16.8972
82
root -1.79349 20.9092 10.4212 -161.859 2.49569 172.354
lowerback 17.6777 -1.91608 -3.78851
upperback 0.885298 -3.01962 0.667797
thorax -8.72303 -1.19201 3.60605
lowerneck -19.1372 0.100143 -1.08002
upperneck 2.59189 0.976502 -2.51591
head 3.80676 0.479509 -0.517896
rclavicle -8.74653e-015 3.10104e-014
rhumerus -61.6126 -3.77799 -81.1942
rradius 89.8544
rwrist -8.18441
rhand -28.6854 0.723967
rfingers 7.12502
rthumb -2.04783 -29.246
lclavicle -8.74653e-015 3.10104e-014
lhumerus -37.0359 -19.128 104.05
lradius 109.736
lwrist 11.6796
lhand -25.3373 -18.2075
lfingers 7.12502
lthumb 1.1858 11.769
rfemur -71.576 -6.41655 16.2064
rtibia 68.193
rfoot -14.914 -1.78189
rtoes -36.7987
lfemur -15.6341 -5.25256 -31.1066
ltibia 49.615
lfoot -18.3235 -7.00184
ltoes -17.2568
83
root -1.75726 20.9924 9.9314 -162.019 2.796 172.147
lowerback 17.1576 -1.886 -4.11694
upperback 0.861488 -3.03839 0.63352
thorax -8.44284 -1.20309 3.73476
lowerneck -19.2029 0.229365 -0.9728
upperneck 2.88074 1.11659 -2.5662
head 3.90863 0.534438 -0.538698
rclavicle -1.39149e-014 7.15625e-015
rhumerus -61.6991 -4.2028 -81.2494
rradius 90.1385
rwrist -8.6775
rhand -28.7783 0.353425
rfingers 7.12502
rthumb -2.13756 -29.6156
lclavicle -1.39149e-014 7.15625e-015
lhumerus -37.7291 -19.2193 104.062
lradius 109.386
lwrist 11.6246
lhand -25.2485 -18.2053
lfingers 7.12502
lthumb 1.27156 11.7707
rfemur -70.325 -6.02398 15.9036
rtibia 65.1301
rfoot -14.0335 -1.54413
rtoes -37.3723
lfemur -14.1786 -5.97923 -31.3639
ltibia 49.1037
lfoot -14.6375 -7.79829
ltoes -16.5363
